# xmcd
#
# Track frame offsets:
#	150
#	10067
#	26025
#	42339
#	61524
#	71895
#	88344
#	105278
#	117256
#	129877
#
# Disc length: 1883 seconds
#
# Revision: 0
# Processed by: cddbd v1.4PL0 Copyright (c) Steve Scherf et al.
# Submitted via: dBpowerAMP V4.0
#
DISCID=7a07590a
DTITLE=Duke Barrix - Songs From The Heart
DYEAR=1900
DGENRE=Country
TTITLE0=Walk Them Golden Stairs
TTITLE1=Peace In The Valley
TTITLE2=Take My Hand Precious Lord
TTITLE3=His Hand In Mine
TTITLE4=So High
TTITLE5=Without Him
TTITLE6=Where Could I Go But To The Lord
TTITLE7=Milky White Way
TTITLE8=Swing Down Sweet Chariot
TTITLE9=Stand By Me
EXTD=Songs From The Heart of Duke Barrix
EXTT0=
EXTT1=
EXTT2=
EXTT3=
EXTT4=
EXTT5=
EXTT6=
EXTT7=
EXTT8=
EXTT9=
PLAYORDER=
